<svg width="368" height="96" viewBox="0 0 368 96" fill="none" xmlns="http://www.w3.org/2000/svg">
<path d="M19.9307 14.5C30.9378 14.5001 39.8604 22.9807 39.8604 33.4414C39.8603 36.1275 39.2699 38.6822 38.209 40.9971C33.6879 36.3375 27.3597 33.4405 20.3545 33.4404C13.0541 33.4405 6.48746 36.5851 1.93652 41.5938C0.69555 39.1245 7.59695e-05 36.3602 0 33.4414C0 22.9806 8.92342 14.5 19.9307 14.5Z" fill="#1D4ED8"/>
<path d="M66.9553 34.4307C66.9551 45.4378 58.4745 54.3604 48.0139 54.3604C45.3277 54.3603 42.7731 53.7699 40.4582 52.709C45.1177 48.1879 48.0148 41.8598 48.0148 34.8545C48.0148 27.5541 44.8702 20.9875 39.8615 16.4365C42.3307 15.1956 45.095 14.5001 48.0139 14.5C58.4746 14.5 66.9553 23.4234 66.9553 34.4307Z" fill="#1D4ED8"/>
<path d="M0 61.5693C0.000146943 50.5622 8.48071 41.6396 18.9414 41.6396C21.6275 41.6397 24.1822 42.2301 26.4971 43.291C21.8375 47.8121 18.9405 54.1403 18.9404 61.1455C18.9405 68.4459 22.0851 75.0125 27.0938 79.5635C24.6245 80.8044 21.8602 81.4999 18.9414 81.5C8.48062 81.5 0 72.5766 0 61.5693Z" fill="#1D4ED8"/>
<path d="M47.0693 81.4553C36.0622 81.4551 27.1396 72.9745 27.1396 62.5139C27.1397 59.8277 27.7301 57.2731 28.791 54.9582C33.3121 59.6177 39.6402 62.5148 46.6455 62.5148C53.9459 62.5148 60.5125 59.3702 65.0635 54.3615C66.3044 56.8307 66.9999 59.595 67 62.5139C67 72.9746 58.0766 81.4553 47.0693 81.4553Z" fill="#1D4ED8" fill-opacity="0.909804"/>
<path d="M114.632 51.568C114.632 52.592 114.568 53.6587 114.44 54.768H89.672C89.8427 56.9867 90.5467 58.6933 91.784 59.888C93.064 61.04 94.6213 61.616 96.456 61.616C99.1867 61.616 101.085 60.464 102.152 58.16H113.8C113.203 60.5067 112.115 62.6187 110.536 64.496C109 66.3733 107.059 67.8453 104.712 68.912C102.365 69.9787 99.7413 70.512 96.84 70.512C93.3413 70.512 90.2267 69.7653 87.496 68.272C84.7653 66.7787 82.632 64.6453 81.096 61.872C79.56 59.0987 78.792 55.856 78.792 52.144C78.792 48.432 79.5387 45.1893 81.032 42.416C82.568 39.6427 84.7013 37.5093 87.432 36.016C90.1627 34.5227 93.2987 33.776 96.84 33.776C100.296 33.776 103.368 34.5013 106.056 35.952C108.744 37.4027 110.835 39.472 112.328 42.16C113.864 44.848 114.632 47.984 114.632 51.568ZM103.432 48.688C103.432 46.8107 102.792 45.3173 101.512 44.208C100.232 43.0987 98.632 42.544 96.712 42.544C94.8773 42.544 93.32 43.0773 92.04 44.144C90.8027 45.2107 90.0347 46.7253 89.736 48.688H103.432ZM118.23 52.144C118.23 48.432 118.976 45.1893 120.47 42.416C122.006 39.6427 124.118 37.5093 126.806 36.016C129.536 34.5227 132.651 33.776 136.15 33.776C140.63 33.776 144.363 34.9493 147.35 37.296C150.379 39.6427 152.363 42.9493 153.302 47.216H141.654C140.672 44.4853 138.774 43.12 135.958 43.12C133.952 43.12 132.352 43.9093 131.158 45.488C129.963 47.024 129.366 49.2427 129.366 52.144C129.366 55.0453 129.963 57.2853 131.158 58.864C132.352 60.4 133.952 61.168 135.958 61.168C138.774 61.168 140.672 59.8027 141.654 57.072H153.302C152.363 61.2533 150.379 64.5387 147.35 66.928C144.32 69.3173 140.587 70.512 136.15 70.512C132.651 70.512 129.536 69.7653 126.806 68.272C124.118 66.7787 122.006 64.6453 120.47 61.872C118.976 59.0987 118.23 55.856 118.23 52.144ZM181.108 33.904C185.204 33.904 188.489 35.2693 190.964 38C193.438 40.688 194.676 44.4 194.676 49.136V70H183.796V50.608C183.796 48.2187 183.177 46.3627 181.94 45.04C180.702 43.7173 179.038 43.056 176.948 43.056C174.857 43.056 173.193 43.7173 171.956 45.04C170.718 46.3627 170.1 48.2187 170.1 50.608V70H159.156V22.64H170.1V39.088C171.209 37.5093 172.724 36.2507 174.644 35.312C176.564 34.3733 178.718 33.904 181.108 33.904ZM218.537 70.512C215.038 70.512 211.881 69.7653 209.065 68.272C206.291 66.7787 204.094 64.6453 202.473 61.872C200.894 59.0987 200.105 55.856 200.105 52.144C200.105 48.4747 200.915 45.2533 202.536 42.48C204.158 39.664 206.377 37.5093 209.193 36.016C212.009 34.5227 215.166 33.776 218.665 33.776C222.163 33.776 225.321 34.5227 228.137 36.016C230.953 37.5093 233.171 39.664 234.793 42.48C236.414 45.2533 237.225 48.4747 237.225 52.144C237.225 55.8133 236.393 59.056 234.729 61.872C233.107 64.6453 230.867 66.7787 228.009 68.272C225.193 69.7653 222.035 70.512 218.537 70.512ZM218.537 61.04C220.627 61.04 222.398 60.272 223.849 58.736C225.342 57.2 226.089 55.0027 226.089 52.144C226.089 49.2853 225.363 47.088 223.913 45.552C222.505 44.016 220.755 43.248 218.665 43.248C216.531 43.248 214.761 44.016 213.353 45.552C211.945 47.0453 211.241 49.2427 211.241 52.144C211.241 55.0027 211.923 57.2 213.289 58.736C214.697 60.272 216.446 61.04 218.537 61.04ZM260.951 43.376H255.062V70H244.119V43.376H240.151V34.288H244.119V33.264C244.119 28.8693 245.377 25.5413 247.895 23.28C250.412 20.976 254.103 19.824 258.967 19.824C259.777 19.824 260.375 19.8453 260.759 19.888V29.168C258.668 29.04 257.196 29.3387 256.343 30.064C255.489 30.7893 255.062 32.0907 255.062 33.968V34.288H260.951V43.376ZM271.597 30.576C269.677 30.576 268.098 30.0213 266.861 28.912C265.666 27.76 265.069 26.352 265.069 24.688C265.069 22.9813 265.666 21.5733 266.861 20.464C268.098 19.312 269.677 18.736 271.597 18.736C273.474 18.736 275.01 19.312 276.205 20.464C277.442 21.5733 278.061 22.9813 278.061 24.688C278.061 26.352 277.442 27.76 276.205 28.912C275.01 30.0213 273.474 30.576 271.597 30.576ZM277.037 34.288V70H266.093V34.288H277.037ZM306.728 33.904C310.909 33.904 314.237 35.2693 316.712 38C319.229 40.688 320.488 44.4 320.488 49.136V70H309.608V50.608C309.608 48.2187 308.989 46.3627 307.752 45.04C306.515 43.7173 304.851 43.056 302.76 43.056C300.669 43.056 299.005 43.7173 297.768 45.04C296.531 46.3627 295.912 48.2187 295.912 50.608V70H284.968V34.288H295.912V39.024C297.021 37.4453 298.515 36.208 300.392 35.312C302.269 34.3733 304.381 33.904 306.728 33.904ZM325.917 52.08C325.917 48.4107 326.6 45.1893 327.965 42.416C329.373 39.6427 331.272 37.5093 333.661 36.016C336.05 34.5227 338.717 33.776 341.661 33.776C344.008 33.776 346.141 34.2667 348.061 35.248C350.024 36.2293 351.56 37.552 352.669 39.216V22.64H363.613V70H352.669V64.88C351.645 66.5867 350.173 67.952 348.253 68.976C346.376 70 344.178 70.512 341.661 70.512C338.717 70.512 336.05 69.7653 333.661 68.272C331.272 66.736 329.373 64.5813 327.965 61.808C326.6 58.992 325.917 55.7493 325.917 52.08ZM352.669 52.144C352.669 49.4133 351.901 47.2587 350.365 45.68C348.872 44.1013 347.037 43.312 344.861 43.312C342.685 43.312 340.829 44.1013 339.293 45.68C337.8 47.216 337.053 49.3493 337.053 52.08C337.053 54.8107 337.8 56.9867 339.293 58.608C340.829 60.1867 342.685 60.976 344.861 60.976C347.037 60.976 348.872 60.1867 350.365 58.608C351.901 57.0293 352.669 54.8747 352.669 52.144Z" fill="url(#paint0_linear_20_7)"/>
<circle cx="306.5" cy="19.5" r="0.5" fill="#D9D9D9"/>
<defs>
<linearGradient id="paint0_linear_20_7" x1="103.5" y1="35" x2="386.5" y2="70" gradientUnits="userSpaceOnUse">
<stop stop-color="#082970"/>
<stop offset="1" stop-color="#0642C4"/>
</linearGradient>
</defs>
</svg>
