<svg width="67" height="68" viewBox="0 0 67 68" fill="none" xmlns="http://www.w3.org/2000/svg">
<path d="M19.9307 0.5C30.9378 0.500147 39.8604 8.98071 39.8604 19.4414C39.8603 22.1275 39.2699 24.6822 38.209 26.9971C33.6879 22.3375 27.3597 19.4405 20.3545 19.4404C13.0541 19.4405 6.48746 22.5851 1.93652 27.5938C0.69555 25.1245 7.59695e-05 22.3602 0 19.4414C0 8.98062 8.92342 0.5 19.9307 0.5Z" fill="#1D4ED8"/>
<path d="M66.9553 20.4307C66.9551 31.4378 58.4745 40.3604 48.0139 40.3604C45.3277 40.3603 42.7731 39.7699 40.4582 38.709C45.1178 34.1879 48.0148 27.8598 48.0148 20.8545C48.0148 13.5541 44.8702 6.98746 39.8615 2.43652C42.3307 1.19555 45.095 0.500076 48.0139 0.5C58.4746 0.5 66.9553 9.42342 66.9553 20.4307Z" fill="#1D4ED8"/>
<path d="M0 47.5693C0.000146943 36.5622 8.48071 27.6396 18.9414 27.6396C21.6275 27.6397 24.1822 28.2301 26.4971 29.291C21.8375 33.8121 18.9405 40.1403 18.9404 47.1455C18.9405 54.4459 22.0851 61.0125 27.0938 65.5635C24.6245 66.8044 21.8602 67.4999 18.9414 67.5C8.48062 67.5 0 58.5766 0 47.5693Z" fill="#1D4ED8"/>
<path d="M47.0693 67.4553C36.0622 67.4551 27.1396 58.9745 27.1396 48.5139C27.1397 45.8277 27.7301 43.2731 28.791 40.9582C33.3121 45.6178 39.6402 48.5148 46.6455 48.5148C53.9459 48.5148 60.5125 45.3702 65.0635 40.3615C66.3044 42.8307 66.9999 45.595 67 48.5139C67 58.9746 58.0766 67.4553 47.0693 67.4553Z" fill="#1D4ED8" fill-opacity="0.909804"/>
</svg>
